<?xml version="1.0" encoding="UTF-8" standalone="no"?>
<!-- Created with Inkscape (http://www.inkscape.org/) -->

<svg
   xmlns:dc="http://purl.org/dc/elements/1.1/"
   xmlns:cc="http://creativecommons.org/ns#"
   xmlns:rdf="http://www.w3.org/1999/02/22-rdf-syntax-ns#"
   xmlns:svg="http://www.w3.org/2000/svg"
   xmlns="http://www.w3.org/2000/svg"
   xmlns:sodipodi="http://sodipodi.sourceforge.net/DTD/sodipodi-0.dtd"
   xmlns:inkscape="http://www.inkscape.org/namespaces/inkscape"
   width="128"
   height="128"
   viewBox="0 0 33.866666 33.866668"
   version="1.1"
   id="svg8"
   inkscape:version="0.92.3 (unknown)"
   sodipodi:docname="logo128x128.svg"
   inkscape:export-filename="/home/solardatasystem/MSV/Camba/00_Repos/ns-vue-radio/design/logo128x128.png"
   inkscape:export-xdpi="150"
   inkscape:export-ydpi="150">
  <defs
     id="defs2">
    <inkscape:path-effect
       effect="spiro"
       id="path-effect984"
       is_visible="true" />
    <inkscape:path-effect
       effect="spiro"
       id="path-effect980"
       is_visible="true" />
  </defs>
  <sodipodi:namedview
     id="base"
     pagecolor="#ffffff"
     bordercolor="#666666"
     borderopacity="1.0"
     inkscape:pageopacity="0.0"
     inkscape:pageshadow="2"
     inkscape:zoom="1.187166"
     inkscape:cx="92.199374"
     inkscape:cy="111.7458"
     inkscape:document-units="mm"
     inkscape:current-layer="layer1"
     showgrid="false"
     units="px"
     inkscape:window-width="1319"
     inkscape:window-height="744"
     inkscape:window-x="47"
     inkscape:window-y="24"
     inkscape:window-maximized="1" />
  <metadata
     id="metadata5">
    <rdf:RDF>
      <cc:Work
         rdf:about="">
        <dc:format>image/svg+xml</dc:format>
        <dc:type
           rdf:resource="http://purl.org/dc/dcmitype/StillImage" />
        <dc:title></dc:title>
      </cc:Work>
    </rdf:RDF>
  </metadata>
  <g
     inkscape:label="Capa 1"
     inkscape:groupmode="layer"
     id="layer1"
     transform="translate(0,-263.13332)">
    <g
       id="g885"
       transform="matrix(0.26458333,0,0,0.26458333,23.667334,133.90261)">
</g>
    <g
       id="g887"
       transform="matrix(0.26458333,0,0,0.26458333,23.667334,133.90261)">
</g>
    <g
       id="g889"
       transform="matrix(0.26458333,0,0,0.26458333,23.667334,133.90261)">
</g>
    <g
       id="g891"
       transform="matrix(0.26458333,0,0,0.26458333,23.667334,133.90261)">
</g>
    <g
       id="g893"
       transform="matrix(0.26458333,0,0,0.26458333,23.667334,133.90261)">
</g>
    <g
       id="g895"
       transform="matrix(0.26458333,0,0,0.26458333,23.667334,133.90261)">
</g>
    <g
       id="g897"
       transform="matrix(0.26458333,0,0,0.26458333,23.667334,133.90261)">
</g>
    <g
       id="g899"
       transform="matrix(0.26458333,0,0,0.26458333,23.667334,133.90261)">
</g>
    <g
       id="g901"
       transform="matrix(0.26458333,0,0,0.26458333,23.667334,133.90261)">
</g>
    <g
       id="g903"
       transform="matrix(0.26458333,0,0,0.26458333,23.667334,133.90261)">
</g>
    <g
       id="g905"
       transform="matrix(0.26458333,0,0,0.26458333,23.667334,133.90261)">
</g>
    <g
       id="g907"
       transform="matrix(0.26458333,0,0,0.26458333,23.667334,133.90261)">
</g>
    <g
       id="g909"
       transform="matrix(0.26458333,0,0,0.26458333,23.667334,133.90261)">
</g>
    <g
       id="g911"
       transform="matrix(0.26458333,0,0,0.26458333,23.667334,133.90261)">
</g>
    <g
       id="g913"
       transform="matrix(0.26458333,0,0,0.26458333,23.667334,133.90261)">
</g>
    <g
       id="g1046"
       transform="matrix(0.33120737,0,0,0.33120737,-1.1440402,261.33249)">
      <rect
         style="clip-rule:evenodd;fill:none;fill-rule:evenodd;stroke-width:0.26458332;stroke-linejoin:round;stroke-miterlimit:1.41420996"
         height="51.157978"
         width="68.269379"
         y="38.213703"
         x="17.09981"
         id="NativeScript-Vue" />
      <g
         style="fill:#00d476;fill-opacity:0.96450578"
         transform="matrix(0,0.26458333,-0.26458333,0,93.169103,5.062471)"
         id="g883">
	<g
   style="fill:#00d476;fill-opacity:0.96450578"
   id="g881">
		<g
   style="fill:#00d476;fill-opacity:0.96450578"
   id="g879">
			
			<path
   style="fill:#00d476;fill-opacity:0.96450578"
   id="path867"
   d="m 75.841,1.489 c 0,0 -10e-4,0 -10e-4,-0.001 -3.593,-2.564 -8.583,-1.733 -11.152,1.856 -51.573,72.183 -51.573,169.161 0,241.344 2.601,3.572 7.604,4.359 11.176,1.758 3.528,-2.569 4.346,-7.49 1.84,-11.062 C 30.109,168.766 30.109,79.266 77.704,12.648 80.271,9.052 79.437,4.056 75.841,1.489 Z"
   inkscape:connector-curvature="0" />

			<path
   style="fill:#00d476;fill-opacity:0.96450578"
   id="path869"
   d="m 126.72,40.704 c 2.706,-3.492 2.069,-8.518 -1.424,-11.224 0,0 0,0 0,0 -3.48,-2.697 -8.486,-2.075 -11.2,1.392 -42.741,54.741 -42.741,131.547 0,186.288 2.715,3.486 7.742,4.111 11.228,1.396 3.486,-2.715 4.111,-7.742 1.396,-11.228 -38.24,-48.959 -38.24,-117.664 0,-166.624 z"
   inkscape:connector-curvature="0" />

			
			
			<path
   style="fill:#00d476;fill-opacity:0.96450578"
   id="path875"
   d="m 169.936,192.224 c 4.418,0.002 8.002,-3.578 8.004,-7.996 0.001,-2.038 -0.776,-3.999 -2.172,-5.484 -29.013,-30.718 -29.013,-78.738 0,-109.456 3.052,-3.195 2.936,-8.259 -0.259,-11.311 -3.195,-3.052 -8.259,-2.936 -11.311,0.259 -0.029,0.03 -0.058,0.061 -0.086,0.092 -34.804,36.877 -34.804,94.499 0,131.376 1.511,1.607 3.618,2.519 5.824,2.52 z"
   inkscape:connector-curvature="0" />

			
		</g>

	</g>

</g>
      <rect
         style="clip-rule:evenodd;fill:none;fill-rule:evenodd;stroke-width:0.26458332;stroke-linejoin:round;stroke-miterlimit:1.41420996"
         height="51.157978"
         width="68.269379"
         y="49.853519"
         x="15.991201"
         id="NativeScript-Vue-3" />
      <g
         transform="matrix(0.26458333,0,0,0.26458333,15.991202,49.853518)"
         id="g1009"
         clip-path="url(#_clip1)"
         style="clip-rule:evenodd;fill-rule:evenodd;stroke-linejoin:round;stroke-miterlimit:1.41420996">
        <g
           id="g1007">
          <path
             id="path1001"
             style="fill:#4d4d4d"
             d="m 82.416,70.114 11.399,18.687 -35.92,62.873 H 34.962 Z"
             inkscape:connector-curvature="0" />
          <path
             id="path1003"
             style="fill:#4d4d4d"
             d="m 137.379,23.942 22.68,39.298 22.67,-39.298 h 30.283 l -52.953,93.705 -54.09,-93.705 z"
             inkscape:connector-curvature="0" />
          <path
             id="path1005"
             style="fill:#42b883"
             d="m 87.472,0.647 72.587,125.343 58.93,-102.048 h 39.23 L 160.059,194 82.448,59.956 29.739,151.294 0.193,151.647 Z"
             inkscape:connector-curvature="0" />
        </g>
      </g>
    </g>
  </g>
</svg>
